<svg width="843" height="143" viewBox="0 0 843 143" fill="none" xmlns="http://www.w3.org/2000/svg">
<path d="M273.483 55.9493C273.483 41.4023 262.848 31.0739 245.69 31.0739C231.79 31.0739 221.841 37.418 221.841 47.8838C221.841 76.8807 295.966 53.3793 295.966 104.504C295.966 129.04 274.518 142.94 247.064 142.94C224.056 142.94 204.902 132.798 197.71 114.064L217.211 94.5553C217.211 111.882 228.525 122.841 247.064 122.841C261.611 122.841 272.457 116.149 272.457 105.344C272.457 75.9998 198.332 99.5093 198.332 49.4031C198.332 26.2411 219.611 10.9749 245.69 10.9749C269.127 10.9749 285.468 22.1922 291.853 37.5473L273.483 55.9493Z" fill="#02001D"/>
<path d="M330.701 17.1736V51.1166H355.754V70.0357H330.701V109.846C330.701 119.964 334.306 122.542 342.888 122.542C346.866 122.414 350.827 121.954 354.728 121.168V140.564C351.641 141.76 342.719 142.625 339.801 142.625C319.379 142.625 308.396 134.042 308.396 112.941V70.0357H292.233V51.1489H308.396V39.4951L330.701 17.1736Z" fill="#02001D"/>
<path d="M817.007 17.1736V51.1166H842.06V70.0357H817.007V109.846C817.007 119.964 820.611 122.542 829.194 122.542C833.172 122.414 837.132 121.954 841.034 121.168V140.564C837.946 141.76 829.024 142.625 826.107 142.625C805.684 142.625 794.701 134.042 794.701 112.941V70.0357H778.538V51.1489H794.701V39.4951L817.007 17.1736Z" fill="#02001D"/>
<path d="M550.159 73.2682L530.423 84.7603C528.371 74.634 519.109 68.29 508.126 68.29C493.579 68.29 483.243 78.2385 483.243 95.3958C483.243 112.553 493.369 122.566 508.126 122.566C518.761 122.566 527.853 115.527 530.423 106.605L549.641 117.758C543.637 131.998 528.023 142.981 508.126 142.981C479.468 142.981 460.081 123.585 460.081 95.4524C460.081 67.4899 480.155 47.9242 508.126 47.9242C527.853 47.8838 544.324 58.8667 550.159 73.2682Z" fill="#02001D"/>
<path d="M578.105 14.2722V83.9361L611.563 51.165H641.417L602.98 88.3971L642.273 140.346H614.998L587.367 103.453L578.105 112.343V140.346H555.8V14.2722H578.105Z" fill="#02001D"/>
<path d="M668.967 14.2722V60.5801C675.828 52.8621 685.607 47.8838 698.651 47.8838C725.07 47.8838 743.601 68.4759 743.601 95.7595C743.601 122.696 725.07 142.94 698.481 142.94C685.437 142.94 675.659 137.962 668.797 130.244V140.346H646.662V14.2722H668.967ZM694.19 122.712C709.286 122.712 720.439 111.899 720.439 95.7757C720.439 79.3053 709.286 68.1526 694.19 68.1526C679.95 68.1526 668.28 78.9578 668.28 95.7757C668.28 112.23 679.99 122.696 694.19 122.696V122.712Z" fill="#02001D"/>
<path d="M749.598 14.2722H772.76V36.5776H749.598V14.2722ZM772.226 51.165V140.346H749.921V51.1488L772.226 51.165Z" fill="#02001D"/>
<path d="M26.3543 0C22.89 -4.07213e-06 19.4597 0.683004 16.2596 2.00996C13.0595 3.33691 10.1525 5.28176 7.70471 7.73326C5.25696 10.1848 3.31657 13.0948 1.99452 16.2969C0.672476 19.499 -0.00528073 22.9304 3.09812e-05 26.3947V65.922C-0.000407711 69.1756 0.902165 72.3654 2.60726 75.1364C4.31235 77.9073 6.75303 80.1507 9.65759 81.6166L43.9642 98.8386V43.9238H98.8387L142.674 0H26.3543Z" fill="#FF364E"/>
<path d="M116.408 142.771C123.396 142.768 130.098 139.991 135.038 135.049C139.979 130.107 142.754 123.404 142.754 116.416V76.8808C142.751 73.624 141.843 70.4322 140.13 67.6621C138.418 64.8919 135.968 62.6526 133.056 61.1943L98.8387 43.9238V98.8387H43.9642L0.0889282 142.771H116.408Z" fill="#FF364E"/>
<path d="M453.93 140.346H449.825H432.425L432.764 129.161C425.887 137.42 415.736 142.9 402.143 142.9C375.474 142.9 356.886 122.599 356.886 95.5897C356.886 68.2333 375.296 47.5847 401.965 47.5847C414.896 47.5847 424.675 52.5711 431.552 60.1436V50.882H453.922L453.93 140.346ZM406.249 122.607C420.529 122.607 432.401 112.101 432.401 95.5978C432.401 78.7314 420.529 67.8939 406.249 67.8939C391.281 67.8939 380.096 79.0789 380.096 95.5978C380.161 111.793 391.306 122.631 406.273 122.631L406.249 122.607Z" fill="#02001D"/>
</svg>
